<?xml version="1.0" encoding="utf-8"?>
<!-- Generator: Adobe Illustrator 16.0.0, SVG Export Plug-In . SVG Version: 6.00 Build 0)  -->
<!DOCTYPE svg PUBLIC "-//W3C//DTD SVG 1.0//EN" "http://www.w3.org/TR/2001/REC-SVG-20010904/DTD/svg10.dtd">
<svg version="1.0" id="图层_2" xmlns="http://www.w3.org/2000/svg" xmlns:xlink="http://www.w3.org/1999/xlink" x="0px" y="0px"
	 width="400px" height="300px" viewBox="0 0 400 300" enable-background="new 0 0 400 300" xml:space="preserve">
<rect x="25" y="36" fill="#00A9FF" width="15" height="20"/>
<rect x="25" y="61" fill="#FF1F00" width="15" height="20"/>
<rect x="25" y="86" fill="#FF1F00" width="15" height="20"/>
<rect x="25" y="111" fill="#FF1F00" width="15" height="20"/>
<rect x="25" y="136" fill="#E0E0E0" width="15" height="20"/>
<rect x="25" y="161" fill="#E0E0E0" width="15" height="20"/>
<rect x="25" y="186" fill="#E0E0E0" width="15" height="20"/>
<rect x="45" y="61" fill="#FF6F00" width="15" height="20"/>
<rect x="45" y="86" fill="#FF6F00" width="15" height="20"/>
<rect x="45" y="111" fill="#FF6F00" width="15" height="20"/>
<rect x="45" y="136" fill="#E0E0E0" width="15" height="20"/>
<rect x="45" y="161" fill="#E0E0E0" width="15" height="20"/>
<rect x="45" y="186" fill="#E0E0E0" width="15" height="20"/>
<rect x="65" y="111" fill="#FFBE00" width="15" height="20"/>
<rect x="65" y="136" fill="#E0E0E0" width="15" height="20"/>
<rect x="65" y="161" fill="#E0E0E0" width="15" height="20"/>
<rect x="65" y="186" fill="#E0E0E0" width="15" height="20"/>
<rect x="85" y="111" fill="#FFBE00" width="15" height="20"/>
<rect x="85" y="136" fill="#E0E0E0" width="15" height="20"/>
<rect x="85" y="161" fill="#E0E0E0" width="15" height="20"/>
<rect x="85" y="186" fill="#E0E0E0" width="15" height="20"/>
<rect x="105" y="111" fill="#FFBE00" width="15" height="20"/>
<rect x="105" y="136" fill="#E0E0E0" width="15" height="20"/>
<rect x="105" y="161" fill="#E0E0E0" width="15" height="20"/>
<rect x="105" y="186" fill="#E0E0E0" width="15" height="20"/>
<rect x="125" y="111" fill="#FFBE00" width="15" height="20"/>
<rect x="125" y="136" fill="#E0E0E0" width="15" height="20"/>
<rect x="125" y="161" fill="#E0E0E0" width="15" height="20"/>
<rect x="125" y="186" fill="#E0E0E0" width="15" height="20"/>
<rect x="145" y="111" fill="#FFBE00" width="15" height="20"/>
<rect x="145" y="136" fill="#E0E0E0" width="15" height="20"/>
<rect x="145" y="161" fill="#E0E0E0" width="15" height="20"/>
<rect x="145" y="186" fill="#E0E0E0" width="15" height="20"/>
<rect x="165" y="111" fill="#FFBE00" width="15" height="20"/>
<rect x="165" y="136" fill="#E0E0E0" width="15" height="20"/>
<rect x="165" y="161" fill="#E0E0E0" width="15" height="20"/>
<rect x="165" y="186" fill="#E0E0E0" width="15" height="20"/>
<rect x="185" y="111" fill="#FFBE00" width="15" height="20"/>
<rect x="185" y="136" fill="#E0E0E0" width="15" height="20"/>
<rect x="185" y="161" fill="#E0E0E0" width="15" height="20"/>
<rect x="185" y="186" fill="#E0E0E0" width="15" height="20"/>
<rect x="205" y="111" fill="#FFBE00" width="15" height="20"/>
<rect x="205" y="136" fill="#E0E0E0" width="15" height="20"/>
<rect x="205" y="161" fill="#E0E0E0" width="15" height="20"/>
<rect x="205" y="186" fill="#E0E0E0" width="15" height="20"/>
<rect x="225" y="111" fill="#FFBE00" width="15" height="20"/>
<rect x="225" y="136" fill="#E0E0E0" width="15" height="20"/>
<rect x="225" y="161" fill="#E0E0E0" width="15" height="20"/>
<rect x="225" y="186" fill="#E0E0E0" width="15" height="20"/>
<rect x="245" y="111" fill="#FFBE00" width="15" height="20"/>
<rect x="245" y="136" fill="#E0E0E0" width="15" height="20"/>
<rect x="245" y="161" fill="#E0E0E0" width="15" height="20"/>
<rect x="245" y="186" fill="#E0E0E0" width="15" height="20"/>
<rect x="265" y="136" fill="#E0E0E0" width="15" height="20"/>
<rect x="265" y="161" fill="#E0E0E0" width="15" height="20"/>
<rect x="265" y="186" fill="#E0E0E0" width="15" height="20"/>
<rect x="285" y="136" fill="#E0E0E0" width="15" height="20"/>
<rect x="285" y="161" fill="#E0E0E0" width="15" height="20"/>
<rect x="285" y="186" fill="#E0E0E0" width="15" height="20"/>
<rect x="305" y="136" fill="#E0E0E0" width="15" height="20"/>
<rect x="265" y="111" fill="#58B847" width="15" height="20"/>
<rect x="285" y="111" fill="#84CF00" width="15" height="20"/>
<rect x="265" y="61" fill="#84CF00" width="15" height="20"/>
<rect x="265" y="86" fill="#58B847" width="15" height="20"/>
<rect x="285" y="86" fill="#84CF00" width="15" height="20"/>
<rect x="305" y="111" fill="#84CF00" width="15" height="20"/>
<rect x="305" y="161" fill="#E0E0E0" width="15" height="20"/>
<rect x="305" y="186" fill="#E0E0E0" width="15" height="20"/>
<rect x="325" y="136" fill="#E0E0E0" width="15" height="20"/>
<rect x="325" y="161" fill="#E0E0E0" width="15" height="20"/>
<rect x="325" y="186" fill="#E0E0E0" width="15" height="20"/>
<rect x="65" y="216" fill="#E0E0E0" width="15" height="20"/>
<rect x="65" y="241" fill="#E0E0E0" width="15" height="20"/>
<rect x="85" y="216" fill="#E0E0E0" width="15" height="20"/>
<rect x="85" y="241" fill="#E0E0E0" width="15" height="20"/>
<rect x="105" y="216" fill="#E0E0E0" width="15" height="20"/>
<rect x="105" y="241" fill="#E0E0E0" width="15" height="20"/>
<rect x="125" y="216" fill="#E0E0E0" width="15" height="20"/>
<rect x="125" y="241" fill="#E0E0E0" width="15" height="20"/>
<rect x="145" y="216" fill="#E0E0E0" width="15" height="20"/>
<rect x="145" y="241" fill="#E0E0E0" width="15" height="20"/>
<rect x="165" y="216" fill="#E0E0E0" width="15" height="20"/>
<rect x="165" y="241" fill="#E0E0E0" width="15" height="20"/>
<rect x="185" y="216" fill="#E0E0E0" width="15" height="20"/>
<rect x="185" y="241" fill="#E0E0E0" width="15" height="20"/>
<rect x="205" y="216" fill="#E0E0E0" width="15" height="20"/>
<rect x="205" y="241" fill="#E0E0E0" width="15" height="20"/>
<rect x="225" y="216" fill="#E0E0E0" width="15" height="20"/>
<rect x="225" y="241" fill="#E0E0E0" width="15" height="20"/>
<rect x="245" y="216" fill="#E0E0E0" width="15" height="20"/>
<rect x="245" y="241" fill="#E0E0E0" width="15" height="20"/>
<rect x="265" y="216" fill="#E0E0E0" width="15" height="20"/>
<rect x="265" y="241" fill="#E0E0E0" width="15" height="20"/>
<rect x="285" y="216" fill="#E0E0E0" width="15" height="20"/>
<rect x="285" y="241" fill="#E0E0E0" width="15" height="20"/>
<rect x="305" y="216" fill="#E0E0E0" width="15" height="20"/>
<rect x="305" y="241" fill="#E0E0E0" width="15" height="20"/>
<rect x="325" y="216" fill="#E0E0E0" width="15" height="20"/>
<rect x="325" y="241" fill="#E0E0E0" width="15" height="20"/>
<rect x="285" y="61" fill="#00A9FF" width="15" height="20"/>
<rect x="305" y="61" fill="#00A9FF" width="15" height="20"/>
<rect x="305" y="86" fill="#00A9FF" width="15" height="20"/>
<rect x="325" y="61" fill="#00A9FF" width="15" height="20"/>
<rect x="325" y="86" fill="#00A9FF" width="15" height="20"/>
<rect x="325" y="111" fill="#00A9FF" width="15" height="20"/>
<rect x="345" y="136" fill="#E0E0E0" width="15" height="20"/>
<rect x="345" y="111" fill="#AA3AC4" width="15" height="20"/>
<rect x="345" y="161" fill="#E0E0E0" width="15" height="20"/>
<rect x="345" y="186" fill="#E0E0E0" width="15" height="20"/>
<rect x="365" y="136" fill="#E0E0E0" width="15" height="20"/>
<rect x="365" y="161" fill="#E0E0E0" width="15" height="20"/>
<rect x="365" y="186" fill="#E0E0E0" width="15" height="20"/>
<rect x="345" y="61" fill="#AA3AC4" width="15" height="20"/>
<rect x="345" y="86" fill="#AA3AC4" width="15" height="20"/>
<rect x="365" y="36" fill="#39C4C5" width="15" height="20"/>
<rect x="365" y="61" fill="#39C4C5" width="15" height="20"/>
<rect x="365" y="86" fill="#39C4C5" width="15" height="20"/>
<rect x="365" y="111" fill="#39C4C5" width="15" height="20"/>
</svg>
